<?xml version="1.0" encoding="UTF-8"?>
<svg id="Layer_1" data-name="Layer 1" xmlns="http://www.w3.org/2000/svg" version="1.1" viewBox="0 0 1080 1080">
  <defs>
    <style>
      .cls-1 {
        fill: #1c1c1c;
      }

      .cls-1, .cls-2, .cls-3, .cls-4, .cls-5, .cls-6, .cls-7 {
        stroke-width: 0px;
      }

      .cls-2 {
        fill: #ffce00;
      }

      .cls-3 {
        fill: #2aff90;
      }

      .cls-4 {
        fill: #ffea2a;
      }

      .cls-5 {
        fill: #26d2db;
      }

      .cls-6, .cls-8 {
        fill: #fff;
      }

      .cls-7 {
        fill: #189aa8;
      }

      .cls-8 {
        font-family: NeuePower-Medium, 'Neue Power';
        font-size: 160.36px;
        font-weight: 500;
      }
    </style>
  </defs>
  <rect class="cls-1" x="1363.35" y="4.68" width="1098.36" height="1098.36"/>
  <g>
    <path class="cls-6" d="M160.09,750.9c25.43,4.15,48.93,8.75,72.64,11.64,23.87,2.91,47.94,4.12,72.63,6.13-2.09,5.83-4.75,12.39-6.8,19.13-5.04,16.59-3.01,31.93,10.01,44.3,13.15,12.49,29.56,14.33,44.71,6.77,31.55-15.74,62.25-33.23,92.98-50.57,26.13-14.74,53.33-24.64,83.88-23.56,22.27.79,43.15,6.6,62.6,17.02,32.07,17.18,63.56,35.48,95.87,52.2,9.35,4.84,20.68,8.42,31.03,8.24,28.17-.51,44.63-28,34.08-56.27-12.81-34.33-26.76-68.24-40.2-102.34-.65-1.66-1.17-3.37-1.61-4.66,41.57-22.36,82.82-44.54,125.03-67.24,9.33,23.45,19.14,47.86,28.76,72.35,25.89,65.91,51.65,131.88,77.54,197.79,25.22,64.21-14.39,131.89-82.68,142.61-28.94,4.54-54.87-2.62-79.78-15.85-65.24-34.64-130.75-68.81-195.34-104.62-40.77-22.6-79.28-22.33-119.85.57-62.09,35.06-125.2,68.31-187.94,102.23-34.35,18.57-70.06,26.61-107.95,11.67-51.74-20.41-79.5-74.59-62.21-127.45,15.55-47.54,35.04-93.78,52.6-140.09Z"/>
    <path class="cls-6" d="M209.84,1004.26c-10.92,0-21.41-2.05-32.08-6.25-41.49-16.36-62.73-59.44-49.4-100.2,10.6-32.42,23.37-64.98,35.71-96.46,3.32-8.48,6.72-17.13,10.08-25.81,1.78.31,3.55.61,5.32.92,17.32,2.99,33.68,5.82,50.6,7.88,15.22,1.85,30.63,3.05,45.66,4.14-4.86,23.02,1.3,43.96,17.73,59.55,11.91,11.31,26.34,17.28,41.71,17.28,9.5,0,18.89-2.28,27.92-6.79,29.81-14.87,59.09-31.4,87.4-47.39l6.57-3.71c25.16-14.19,46.94-20.81,68.55-20.81,1.25,0,2.5.02,3.76.07,18.51.65,36.34,5.51,53,14.43,13.19,7.06,26.56,14.48,39.5,21.65,18.43,10.21,37.48,20.78,56.64,30.69,13.33,6.9,27.66,10.7,40.35,10.7h1.17c19.8-.37,37.37-9.69,48.2-25.6,11.56-16.97,13.82-39.51,6.06-60.31-8.95-24-18.57-48.07-27.87-71.35-2.37-5.93-4.74-11.86-7.1-17.79l86.33-46.43c6.44,16.14,13.09,32.81,19.6,49.37,13.06,33.25,26.09,66.52,39.12,99.78,12.8,32.67,25.59,65.35,38.42,98.01,9.46,24.09,7.8,50.29-4.56,71.86-12.59,21.96-34.85,36.92-61.08,41.03-4.65.73-9.35,1.1-13.95,1.1-16.74,0-33.3-4.65-52.12-14.65-14.76-7.84-29.53-15.65-44.3-23.46-49.6-26.23-100.89-53.36-150.7-80.97-23.38-12.96-46.96-19.53-70.09-19.53s-47.13,6.61-71.2,20.19c-45.21,25.53-91.83,50.56-136.92,74.76-16.9,9.07-33.8,18.15-50.67,27.27-20.92,11.31-39.69,16.81-57.37,16.81Z"/>
    <path class="cls-6" d="M786.88,487.67c2.77,7.04,5.41,14.14,8.87,23.2-41.52,22.83-82.24,45.21-124.57,68.49-5.29-13.13-9.64-23.73-13.84-34.39-35.02-88.81-69.98-177.64-105.05-266.43-7.22-18.29-21.26-25.78-37.62-18.32-6.42,2.93-12.75,10.01-15.41,16.67-39.08,98.14-77.54,196.52-116.11,294.85-10.47,26.69-20.93,53.39-31.13,80.19-2.39,6.28-5.06,10.63-12.91,10.43-29.17-.76-58.4-.23-87.52-1.83-17.64-.97-35.11-4.97-53.14-7.68,31.93-81.18,63.36-161.24,94.91-241.24,35.55-90.15,71.19-180.28,106.85-270.39,18.09-45.71,57.61-72.95,106.73-72.35,23.23.29,47,.03,69.52,4.78,34.47,7.27,59.04,29.26,72.14,62.43"/>
    <path class="cls-6" d="M332.97,640.26c-8.97-.18-17.94-.26-26.67-.34-17.63-.16-35.87-.33-53.51-1.3-7.79-.43-15.75-1.55-24-2.92l19.13-48.66c22.04-56.05,43.92-111.72,65.86-167.36,30.63-77.66,63.58-161.04,106.84-270.36,14.71-37.16,45.58-58.48,84.71-58.48l8.27.08c20.65.21,40.16.4,58.32,4.23,26.7,5.63,45.62,22.12,56.24,49.01,34.78,88.08,69.98,177.7,104.02,264.37l34.25,87.17c.67,1.7,1.33,3.4,1.99,5.13l-86.16,47.37c-1.54-3.83-3.03-7.55-4.5-11.28-12.67-32.13-25.34-64.27-38-96.41-22.34-56.68-44.67-113.37-67.05-170.03-8.67-21.96-25.83-35.07-45.89-35.07-7.07,0-14.22,1.63-21.27,4.84-11.39,5.19-21.87,16.39-26.7,28.53-33.22,83.42-66.53,168.39-98.75,250.56l-17.41,44.4c-9.25,23.59-19.68,50.18-29.74,76.53Z"/>
    <path class="cls-2" d="M889.65,305.29c-21.93-12.15-46.86-19.89-71.3-26.25-28.41-7.39-57.9-9.7-88.23-7.69,1.95,5.29,4.17,9.56,5.09,14.1,2.88,14.23,11.31,17.59,25.46,18.66,34.65,2.61,68.69,9.7,99.12,27.93,27.79,16.65,46.06,39.45,43.51,73.95-1.39,18.92-8.17,36.21-18.88,51.8-19.92,28.99-45.6,52.26-74.05,72.52-70.83,50.45-149.85,84.13-231.97,110.7-113.1,36.6-228.42,57.8-347.9,42.64-37.78-4.79-74.44-14.27-107.17-34.96-39.17-24.76-49.62-59.64-30.56-101.79,13.13-29.04,35.06-51.06,58.68-71.44,33.63-29.01,71.62-51.4,111.06-71.48,3.44-1.75,7.75-4.03,9.13-7.17,6.22-14.23,11.54-28.85,18.25-46.09-53.24,22.19-100.54,48.59-144.11,81.49-30.77,23.24-59.26,48.83-79.95,81.95-19.72,31.58-31.37,65.54-24.22,102.98,7.7,40.28,34.41,66.94,68.92,85.98,42.92,23.68,90.34,32.33,138.37,37.1,62.52,6.21,124.92,2.25,186.9-6.9,66.81-9.86,132.05-26.56,195.36-50.08,83.03-30.84,162.97-67.71,232.04-124.63,30.68-25.29,58.07-53.5,75.94-89.64,31.15-63,11.99-129.63-49.5-163.68Z"/>
    <path class="cls-5" d="M844.02,174.74c13.58-2.26,26.52-4.27,39.41-6.59,42.19-7.58,55.38-21.7,61.72-65.6,2.23-15.47,4.63-30.91,7.32-48.78,3.28,21.46,5.86,40.61,9.18,59.64,5.9,33.84,13.94,44.52,55.95,54.19,13.43,3.09,27.23,4.57,43.41,7.21-17.59,2.88-32.75,4.78-47.64,7.94-28.55,6.05-46.56,22.82-51.21,52.53-3.1,19.79-6.53,39.52-10.1,60.95-2.42-16.33-4.51-31.3-6.9-46.22-1.27-7.9-2.48-15.88-4.7-23.55-6.5-22.43-22.44-35.56-44.3-41.2-16.87-4.35-34.19-6.98-52.13-10.53Z"/>
  </g>
  <rect class="cls-1" x="-1155.16" y="-8.92" width="1098.36" height="1098.36"/>
  <g>
    <g>
      <path class="cls-6" d="M-773.65,540.13c11.58,1.89,22.28,3.98,33.08,5.3,10.87,1.32,21.83,1.87,33.08,2.79-.95,2.65-2.16,5.64-3.1,8.71-2.29,7.56-1.37,14.54,4.56,20.17,5.99,5.69,13.46,6.53,20.36,3.08,14.37-7.17,28.35-15.13,42.34-23.03,11.9-6.71,24.29-11.22,38.2-10.73,10.14.36,19.65,3.01,28.51,7.75,14.61,7.82,28.94,16.15,43.65,23.77,4.26,2.2,9.42,3.84,14.13,3.75,12.83-.23,20.32-12.75,15.52-25.62-5.83-15.63-12.19-31.07-18.31-46.6-.3-.76-.53-1.54-.73-2.12,18.93-10.18,37.71-20.28,56.94-30.62,4.25,10.68,8.72,21.79,13.1,32.95,11.79,30.02,23.52,60.05,35.31,90.07,11.48,29.24-6.55,60.06-37.65,64.94-13.18,2.07-24.99-1.19-36.33-7.22-29.71-15.78-59.54-31.33-88.95-47.64-18.56-10.29-36.1-10.17-54.58.26-28.27,15.97-57.01,31.11-85.58,46.55-15.64,8.46-31.9,12.12-49.16,5.31-23.56-9.29-36.2-33.97-28.33-58.04,7.08-21.65,15.96-42.71,23.95-63.79Z"/>
      <path class="cls-6" d="M-751,655.51c-4.97,0-9.75-.93-14.61-2.85-18.89-7.45-28.56-27.07-22.49-45.63,4.83-14.76,10.64-29.59,16.26-43.93,1.51-3.86,3.06-7.8,4.59-11.75.81.14,1.62.28,2.42.42,7.89,1.36,15.34,2.65,23.04,3.59,6.93.84,13.95,1.39,20.79,1.88-2.21,10.48.59,20.02,8.07,27.12,5.42,5.15,11.99,7.87,19,7.87,4.32,0,8.6-1.04,12.71-3.09,13.57-6.77,26.91-14.3,39.8-21.58l2.99-1.69c11.46-6.46,21.38-9.47,31.22-9.47.57,0,1.14.01,1.71.03,8.43.3,16.55,2.51,24.14,6.57,6.01,3.22,12.1,6.59,17.99,9.86,8.39,4.65,17.07,9.46,25.79,13.98,6.07,3.14,12.6,4.87,18.37,4.87h.53c9.02-.17,17.02-4.41,21.95-11.66,5.26-7.73,6.29-17.99,2.76-27.46-4.08-10.93-8.46-21.89-12.69-32.49-1.08-2.7-2.16-5.4-3.23-8.1l39.31-21.14c2.93,7.35,5.96,14.94,8.93,22.48,5.95,15.14,11.88,30.29,17.81,45.44,5.83,14.88,11.65,29.76,17.5,44.63,4.31,10.97,3.55,22.9-2.08,32.72-5.73,10-15.87,16.81-27.81,18.69-2.12.33-4.26.5-6.35.5-7.62,0-15.16-2.12-23.74-6.67-6.72-3.57-13.45-7.13-20.17-10.68-22.59-11.95-45.94-24.3-68.62-36.87-10.65-5.9-21.38-8.89-31.92-8.89s-21.46,3.01-32.42,9.19c-20.59,11.62-41.82,23.02-62.35,34.05-7.7,4.13-15.39,8.26-23.07,12.42-9.53,5.15-18.07,7.66-26.12,7.66Z"/>
      <path class="cls-6" d="M-488.23,420.26c1.26,3.21,2.46,6.44,4.04,10.57-18.91,10.4-37.45,20.59-56.73,31.19-2.41-5.98-4.39-10.8-6.3-15.66-15.95-40.44-31.86-80.89-47.83-121.33-3.29-8.33-9.68-11.74-17.13-8.34-2.93,1.33-5.81,4.56-7.02,7.59-17.79,44.69-35.31,89.49-52.87,134.27-4.77,12.16-9.53,24.31-14.18,36.51-1.09,2.86-2.3,4.84-5.88,4.75-13.28-.35-26.6-.1-39.86-.83-8.03-.44-15.99-2.26-24.2-3.5,14.54-36.97,28.85-73.42,43.22-109.85,16.19-41.05,32.42-82.09,48.66-123.13,8.24-20.82,26.23-33.22,48.6-32.94,10.58.13,21.4.01,31.66,2.17,15.7,3.31,26.89,13.32,32.85,28.43"/>
      <path class="cls-6" d="M-694.93,489.75c-4.08-.08-8.17-.12-12.15-.16-8.03-.07-16.33-.15-24.37-.59-3.55-.19-7.17-.71-10.93-1.33l8.71-22.16c10.03-25.53,20-50.88,29.99-76.21,13.95-35.36,28.95-73.33,48.65-123.12,6.7-16.92,20.76-26.63,38.58-26.63l3.77.04c9.4.09,18.29.18,26.56,1.93,12.16,2.56,20.78,10.07,25.61,22.32,15.84,40.11,31.87,80.92,47.37,120.39l15.59,39.7c.3.77.6,1.55.91,2.34l-39.24,21.57c-.7-1.74-1.38-3.44-2.05-5.14-5.77-14.63-11.54-29.27-17.3-43.9-10.17-25.81-20.34-51.62-30.53-77.43-3.95-10-11.76-15.97-20.9-15.97-3.22,0-6.48.74-9.68,2.2-5.19,2.36-9.96,7.46-12.16,12.99-15.13,37.99-30.3,76.68-44.97,114.1l-7.93,20.22c-4.21,10.74-8.96,22.85-13.54,34.85Z"/>
      <path class="cls-2" d="M-441.43,337.22c-9.99-5.53-21.34-9.06-32.47-11.95-12.94-3.37-26.37-4.42-40.18-3.5.89,2.41,1.9,4.35,2.32,6.42,1.31,6.48,5.15,8.01,11.6,8.5,15.78,1.19,31.28,4.42,45.14,12.72,12.66,7.58,20.97,17.96,19.81,33.67-.64,8.61-3.72,16.49-8.6,23.59-9.07,13.2-20.77,23.8-33.72,33.02-32.25,22.97-68.24,38.31-105.63,50.41-51.5,16.67-104.01,26.32-158.42,19.42-17.21-2.18-33.9-6.5-48.8-15.92-17.84-11.28-22.59-27.16-13.92-46.35,5.98-13.22,15.97-23.25,26.72-32.53,15.31-13.21,32.61-23.41,50.57-32.55,1.56-.8,3.53-1.84,4.16-3.27,2.83-6.48,5.25-13.14,8.31-20.99-24.24,10.1-45.78,22.13-65.62,37.11-14.01,10.58-26.99,22.24-36.4,37.32-8.98,14.38-14.29,29.84-11.03,46.89,3.51,18.34,15.67,30.48,31.39,39.15,19.55,10.78,41.14,14.72,63.01,16.89,28.47,2.83,56.89,1.02,85.11-3.14,30.42-4.49,60.13-12.09,88.96-22.8,37.81-14.04,74.21-30.83,105.66-56.75,13.97-11.52,26.44-24.36,34.58-40.82,14.18-28.69,5.46-59.03-22.54-74.54Z"/>
      <path class="cls-5" d="M-462.21,277.77c6.18-1.03,12.08-1.94,17.95-3,19.21-3.45,25.22-9.88,28.1-29.87,1.02-7.04,2.11-14.08,3.33-22.21,1.49,9.77,2.67,18.49,4.18,27.16,2.69,15.41,6.35,20.27,25.48,24.68,6.12,1.41,12.4,2.08,19.77,3.28-8.01,1.31-14.91,2.18-21.7,3.61-13,2.75-21.2,10.39-23.32,23.92-1.41,9.01-2.98,18-4.6,27.76-1.1-7.44-2.06-14.25-3.14-21.05-.58-3.6-1.13-7.23-2.14-10.72-2.96-10.22-10.22-16.2-20.17-18.76-7.68-1.98-15.57-3.18-23.74-4.8Z"/>
    </g>
    <g>
      <path class="cls-6" d="M-917.57,857.32c-3.96,0-7.83-.54-11.62-1.6-3.8-1.07-7.22-2.65-10.26-4.73-3.05-2.08-5.51-4.7-7.38-7.86-1.87-3.15-2.81-6.81-2.81-10.98s1.01-7.64,3.05-10.42c2.03-2.78,4.65-5.05,7.86-6.82,3.21-1.76,6.76-3.05,10.66-3.85,3.9-.8,7.67-1.25,11.31-1.36l42.65-1.76v-3.37c0-3.74-.96-6.79-2.89-9.14-1.92-2.35-4.38-4.17-7.38-5.45-2.99-1.28-6.28-2.14-9.86-2.57-3.58-.43-7.03-.64-10.34-.64s-6.55.21-10.02.64c-3.47.43-6.65,1.23-9.54,2.41-2.89,1.18-5.29,2.89-7.22,5.13s-2.89,5.24-2.89,8.98h-13.47c0-5.56,1.15-10.21,3.45-13.95,2.3-3.74,5.42-6.74,9.38-8.98,3.95-2.25,8.5-3.82,13.63-4.73,5.13-.91,10.58-1.36,16.36-1.36,6.95,0,13.2.62,18.76,1.84,5.56,1.23,10.29,3.21,14.19,5.93,3.9,2.73,6.89,6.31,8.98,10.74,2.08,4.44,3.13,9.86,3.13,16.28v45.38h-13.95v-28.54c0,4.38-.78,8.21-2.33,11.47-1.55,3.26-3.55,6.01-6.01,8.26-2.46,2.25-5.29,4.09-8.5,5.53-3.21,1.44-6.42,2.57-9.62,3.37s-6.33,1.36-9.38,1.68-5.69.48-7.94.48ZM-914.05,845.93c3.53,0,7.59-.29,12.19-.88,4.59-.59,8.98-1.66,13.15-3.21,4.17-1.55,7.7-3.61,10.58-6.17,2.89-2.57,4.33-5.83,4.33-9.78v-7.06l-38.49,1.44c-2.67.11-5.37.43-8.1.96-2.73.54-5.19,1.26-7.38,2.17-2.19.91-3.98,2.06-5.37,3.45-1.39,1.39-2.08,3.05-2.08,4.97,0,2.57.61,4.73,1.84,6.49,1.23,1.76,2.83,3.21,4.81,4.33,1.98,1.12,4.25,1.95,6.82,2.49,2.57.54,5.13.8,7.7.8Z"/>
      <path class="cls-6" d="M-838.04,829.41c.21,2.78,1.07,5.08,2.57,6.9,1.5,1.82,3.53,3.29,6.09,4.41,2.57,1.12,5.53,1.9,8.9,2.33,3.37.43,6.97.64,10.82.64,3.21,0,6.52-.13,9.94-.4,3.42-.27,6.55-.83,9.38-1.68,2.83-.85,5.16-2.06,6.98-3.61,1.82-1.55,2.73-3.55,2.73-6.01,0-1.92-1.71-3.85-5.13-5.77-3.42-1.92-8.61-3.26-15.55-4.01l-22.93-3.37c-3.53-.53-6.95-1.31-10.26-2.33-3.32-1.01-6.25-2.33-8.82-3.93-2.57-1.6-4.62-3.61-6.17-6.01-1.55-2.41-2.33-5.21-2.33-8.42,0-3.74,1.12-7.06,3.37-9.94,2.24-2.89,5.29-5.29,9.14-7.22s8.31-3.39,13.39-4.41c5.08-1.01,10.5-1.52,16.28-1.52s11.09.54,15.96,1.6c4.86,1.07,9.11,2.65,12.75,4.73,3.63,2.08,6.47,4.73,8.5,7.94,2.03,3.21,3.05,6.95,3.05,11.22h-13.47c0-2.46-.67-4.59-2-6.41-1.34-1.82-3.18-3.29-5.53-4.41-2.35-1.12-5.16-1.95-8.42-2.49-3.26-.53-6.87-.8-10.82-.8-2.89,0-5.99.19-9.3.56-3.32.38-6.39,1.02-9.22,1.92-2.83.91-5.16,2.08-6.98,3.53-1.82,1.44-2.73,3.23-2.73,5.37,0,2.25,1.55,4.3,4.65,6.17,3.1,1.87,8.28,3.23,15.56,4.09l26.14,4.01c3.1.43,6.12,1.15,9.06,2.17,2.94,1.02,5.53,2.33,7.78,3.93s4.03,3.5,5.37,5.69c1.34,2.19,2,4.73,2,7.62,0,4.6-1.07,8.45-3.21,11.55-2.14,3.1-5.11,5.53-8.9,7.3-3.79,1.76-8.29,3.02-13.47,3.77-5.19.75-10.77,1.12-16.76,1.12s-11.36-.48-16.44-1.44c-5.08-.96-9.52-2.49-13.31-4.57-3.8-2.08-6.76-4.76-8.9-8.02-2.14-3.26-3.21-7.19-3.21-11.79h13.47Z"/>
      <path class="cls-6" d="M-729.63,762.38c0,5.45,2.03,9.17,6.09,11.14,4.06,1.98,10.58,2.97,19.56,2.97h7.54v12.67h-33.19v37.68c0,2.03.21,3.93.64,5.69.43,1.76,1.12,3.31,2.08,4.65.96,1.34,2.19,2.38,3.69,3.13,1.5.75,3.37,1.12,5.61,1.12h21.17v13.79h-24.7c-7.48,0-13.15-2.35-17-7.06-3.85-4.7-5.77-11.06-5.77-19.08v-39.93h-17v-12.67h50.19c-5.67,0-10.58-.13-14.75-.4-4.17-.27-7.64-1.12-10.42-2.57-2.78-1.44-4.84-3.71-6.17-6.81-1.34-3.1-2-7.48-2-13.15v-10.58h14.43v19.4Z"/>
      <path class="cls-6" d="M-633.26,788.84h-19.24c-5.13,0-9.12.86-11.95,2.57-2.83,1.71-4.95,3.93-6.33,6.65-1.39,2.73-2.24,5.8-2.57,9.22-.32,3.42-.48,6.79-.48,10.1v37.84h-14.59v-80.02h14.43v31.27c0-4.7.69-8.98,2.08-12.83,1.39-3.85,3.29-7.16,5.69-9.94,2.41-2.78,5.26-4.92,8.58-6.42,3.31-1.5,6.84-2.25,10.58-2.25h13.79v13.79Z"/>
      <path class="cls-6" d="M-632.46,814.98c0-13.9,4.03-24.13,12.11-30.71,8.07-6.57,19.38-9.86,33.92-9.86,7.16,0,13.55.78,19.16,2.33,5.61,1.55,10.34,3.96,14.19,7.22,3.85,3.26,6.79,7.46,8.82,12.59,2.03,5.13,3.05,11.28,3.05,18.44,0,13.47-4.01,23.55-12.03,30.23-8.02,6.68-19.08,10.02-33.2,10.02-6.73,0-12.91-.83-18.52-2.49-5.61-1.66-10.45-4.17-14.51-7.54-4.06-3.37-7.24-7.56-9.54-12.59-2.3-5.02-3.45-10.9-3.45-17.64ZM-618.35,814.82c0,5.13.72,9.49,2.16,13.07,1.44,3.58,3.53,6.44,6.25,8.58,2.73,2.14,6.07,3.69,10.02,4.65,3.96.96,8.5,1.44,13.63,1.44,9.73,0,17.32-2.38,22.77-7.14,5.45-4.75,8.18-11.63,8.18-20.61s-2.73-16.36-8.18-20.85c-5.45-4.49-13.04-6.74-22.77-6.74s-17.77,2.38-23.49,7.14c-5.72,4.76-8.58,11.57-8.58,20.45Z"/>
      <path class="cls-6" d="M-456.06,855.07v-30.79c-1.28,7.38-3.53,13.23-6.74,17.56-3.21,4.33-6.74,7.64-10.58,9.94-3.85,2.3-7.67,3.79-11.47,4.49-3.8.69-6.92,1.04-9.38,1.04-6.63,0-12.48-1.02-17.56-3.05-5.08-2.03-9.33-4.89-12.75-8.58-3.42-3.69-5.99-8.1-7.7-13.23-1.71-5.13-2.57-10.85-2.57-17.16,0-5.88.85-11.3,2.57-16.28,1.71-4.97,4.2-9.3,7.46-12.99,3.26-3.69,7.32-6.58,12.19-8.66,4.86-2.08,10.4-3.13,16.6-3.13,1.6,0,3.55.14,5.85.4,2.3.27,4.78.8,7.46,1.6,2.67.8,5.4,1.95,8.18,3.45,2.78,1.5,5.4,3.45,7.86,5.85,2.46,2.41,4.62,5.37,6.5,8.9,1.87,3.53,3.23,7.75,4.09,12.67v-64.14h14.27v112.09h-14.27ZM-456.06,815.3c0-3.21-.59-6.47-1.76-9.78-1.18-3.31-3.13-6.31-5.85-8.98-2.73-2.67-6.31-4.84-10.74-6.49-4.44-1.66-9.97-2.49-16.6-2.49-4.28,0-8.21.75-11.79,2.24-3.58,1.5-6.68,3.53-9.3,6.09-2.62,2.57-4.65,5.53-6.09,8.9-1.44,3.37-2.17,6.87-2.17,10.5s.72,7.32,2.17,10.74c1.44,3.42,3.5,6.47,6.17,9.14,2.67,2.67,5.85,4.79,9.54,6.33,3.69,1.55,7.83,2.33,12.43,2.33,6.41,0,11.79-.85,16.12-2.57,4.33-1.71,7.83-3.93,10.5-6.66,2.67-2.73,4.57-5.8,5.69-9.22,1.12-3.42,1.68-6.79,1.68-10.1Z"/>
      <path class="cls-6" d="M-390.32,857.15c-6.63,0-12.62-.91-17.96-2.73-5.35-1.82-9.89-4.46-13.63-7.94-3.74-3.47-6.63-7.78-8.66-12.91-2.03-5.13-3.05-11.01-3.05-17.64,0-14.11,3.71-24.56,11.15-31.35,7.43-6.79,17.93-10.18,31.51-10.18s24.56,3.5,32.31,10.5c7.75,7,11.63,17.4,11.63,31.19v4.81h-72.48c0,7.59,2.65,13.44,7.94,17.56,5.29,4.12,12.43,6.17,21.41,6.17,16.14,0,25.6-5.29,28.38-15.88h13.47c-1.92,10.05-6.47,17.29-13.63,21.73-7.16,4.44-16.62,6.65-28.38,6.65ZM-419.5,810.65h58.21c0-3.74-.78-7.08-2.33-10.02-1.55-2.94-3.66-5.42-6.33-7.46-2.67-2.03-5.8-3.58-9.38-4.65-3.58-1.07-7.4-1.6-11.46-1.6s-7.83.43-11.31,1.28c-3.48.86-6.49,2.25-9.06,4.17-2.57,1.92-4.6,4.38-6.09,7.38-1.5,2.99-2.25,6.63-2.25,10.9Z"/>
      <path class="cls-6" d="M-262.83,775.05l-33.68,40.73,31.43,39.45h-16.52l-23.89-29.51-24.7,29.51h-16.84l32.55-39.13-32.55-41.05h16.68l24.86,30.79,25.98-30.79h16.68Z"/>
    </g>
  </g>
  <rect class="cls-1" x="-2289.88" y="-8.92" width="1098.36" height="1098.36"/>
  <g>
    <path class="cls-6" d="M-1908.37,505.65c11.58,1.89,22.28,3.98,33.08,5.3,10.87,1.32,21.83,1.87,33.08,2.79-.95,2.65-2.16,5.64-3.1,8.71-2.29,7.56-1.37,14.54,4.56,20.17,5.99,5.69,13.46,6.53,20.36,3.08,14.37-7.17,28.35-15.13,42.34-23.03,11.9-6.71,24.29-11.22,38.2-10.73,10.14.36,19.65,3.01,28.51,7.75,14.61,7.82,28.94,16.15,43.65,23.77,4.26,2.2,9.42,3.84,14.13,3.75,12.83-.23,20.32-12.75,15.52-25.62-5.83-15.63-12.19-31.07-18.31-46.6-.3-.76-.53-1.54-.73-2.12,18.93-10.18,37.71-20.28,56.94-30.62,4.25,10.68,8.72,21.79,13.1,32.95,11.79,30.02,23.52,60.05,35.31,90.07,11.48,29.24-6.55,60.06-37.65,64.94-13.18,2.07-24.99-1.19-36.33-7.22-29.71-15.78-59.54-31.33-88.95-47.64-18.56-10.29-36.1-10.17-54.58.26-28.27,15.97-57.01,31.11-85.58,46.55-15.64,8.46-31.9,12.12-49.16,5.31-23.56-9.29-36.2-33.97-28.33-58.04,7.08-21.65,15.96-42.71,23.95-63.79Z"/>
    <path class="cls-6" d="M-1885.72,621.02c-4.97,0-9.75-.93-14.61-2.85-18.89-7.45-28.56-27.07-22.49-45.63,4.83-14.76,10.64-29.59,16.26-43.93,1.51-3.86,3.06-7.8,4.59-11.75.81.14,1.62.28,2.42.42,7.89,1.36,15.34,2.65,23.04,3.59,6.93.84,13.95,1.39,20.79,1.88-2.21,10.48.59,20.02,8.07,27.12,5.42,5.15,11.99,7.87,19,7.87,4.32,0,8.6-1.04,12.71-3.09,13.57-6.77,26.91-14.3,39.8-21.58l2.99-1.69c11.46-6.46,21.38-9.47,31.22-9.47.57,0,1.14.01,1.71.03,8.43.3,16.55,2.51,24.14,6.57,6.01,3.22,12.1,6.59,17.99,9.86,8.39,4.65,17.07,9.46,25.79,13.98,6.07,3.14,12.6,4.87,18.37,4.87h.53c9.02-.17,17.02-4.41,21.95-11.66,5.26-7.73,6.29-17.99,2.76-27.46-4.08-10.93-8.46-21.89-12.69-32.49-1.08-2.7-2.16-5.4-3.23-8.1l39.31-21.14c2.93,7.35,5.96,14.94,8.93,22.48,5.95,15.14,11.88,30.29,17.81,45.44,5.83,14.88,11.65,29.76,17.5,44.63,4.31,10.97,3.55,22.9-2.08,32.72-5.73,10-15.87,16.81-27.81,18.69-2.12.33-4.26.5-6.35.5-7.62,0-15.16-2.12-23.74-6.67-6.72-3.57-13.45-7.13-20.17-10.68-22.59-11.95-45.94-24.3-68.62-36.87-10.65-5.9-21.38-8.89-31.92-8.89s-21.46,3.01-32.42,9.19c-20.59,11.62-41.82,23.02-62.35,34.05-7.7,4.13-15.39,8.26-23.07,12.42-9.53,5.15-18.07,7.66-26.12,7.66Z"/>
    <path class="cls-6" d="M-1622.95,385.78c1.26,3.21,2.46,6.44,4.04,10.57-18.91,10.4-37.45,20.59-56.73,31.19-2.41-5.98-4.39-10.8-6.3-15.66-15.95-40.44-31.86-80.89-47.83-121.33-3.29-8.33-9.68-11.74-17.13-8.34-2.93,1.33-5.81,4.56-7.02,7.59-17.79,44.69-35.31,89.49-52.87,134.27-4.77,12.16-9.53,24.31-14.18,36.51-1.09,2.86-2.3,4.84-5.88,4.75-13.28-.35-26.6-.1-39.86-.83-8.03-.44-15.99-2.26-24.2-3.5,14.54-36.97,28.85-73.42,43.22-109.85,16.19-41.05,32.42-82.09,48.66-123.13,8.24-20.82,26.23-33.22,48.6-32.94,10.58.13,21.4.01,31.66,2.17,15.7,3.31,26.89,13.32,32.85,28.43"/>
    <path class="cls-6" d="M-1829.65,455.26c-4.08-.08-8.17-.12-12.15-.16-8.03-.07-16.33-.15-24.37-.59-3.55-.19-7.17-.71-10.93-1.33l8.71-22.16c10.03-25.53,20-50.88,29.99-76.21,13.95-35.36,28.95-73.33,48.65-123.12,6.7-16.92,20.76-26.63,38.58-26.63l3.77.04c9.4.09,18.29.18,26.56,1.93,12.16,2.56,20.78,10.07,25.61,22.32,15.84,40.11,31.87,80.92,47.37,120.39l15.59,39.7c.3.77.6,1.55.91,2.34l-39.24,21.57c-.7-1.74-1.38-3.44-2.05-5.14-5.77-14.63-11.54-29.27-17.3-43.9-10.17-25.81-20.34-51.62-30.53-77.43-3.95-10-11.76-15.97-20.9-15.97-3.22,0-6.48.74-9.68,2.2-5.19,2.36-9.96,7.46-12.16,12.99-15.13,37.99-30.3,76.68-44.97,114.1l-7.93,20.22c-4.21,10.74-8.96,22.85-13.54,34.85Z"/>
    <path class="cls-7" d="M-1576.15,302.73c-9.99-5.53-21.34-9.06-32.47-11.95-12.94-3.37-26.37-4.42-40.18-3.5.89,2.41,1.9,4.35,2.32,6.42,1.31,6.48,5.15,8.01,11.6,8.5,15.78,1.19,31.28,4.42,45.14,12.72,12.66,7.58,20.97,17.96,19.81,33.67-.64,8.61-3.72,16.49-8.6,23.59-9.07,13.2-20.77,23.8-33.72,33.02-32.25,22.97-68.24,38.31-105.63,50.41-51.5,16.67-104.01,26.32-158.42,19.42-17.21-2.18-33.9-6.5-48.8-15.92-17.84-11.28-22.59-27.16-13.92-46.35,5.98-13.22,15.97-23.25,26.72-32.53,15.31-13.21,32.61-23.41,50.57-32.55,1.56-.8,3.53-1.84,4.16-3.27,2.83-6.48,5.25-13.14,8.31-20.99-24.24,10.1-45.78,22.13-65.62,37.11-14.01,10.58-26.99,22.24-36.4,37.32-8.98,14.38-14.29,29.84-11.03,46.89,3.51,18.34,15.67,30.48,31.39,39.15,19.55,10.78,41.14,14.72,63.01,16.89,28.47,2.83,56.89,1.02,85.11-3.14,30.42-4.49,60.13-12.09,88.96-22.8,37.81-14.04,74.21-30.83,105.66-56.75,13.97-11.52,26.44-24.36,34.58-40.82,14.18-28.69,5.46-59.03-22.54-74.54Z"/>
    <path class="cls-4" d="M-1596.93,243.28c6.18-1.03,12.08-1.94,17.95-3,19.21-3.45,25.22-9.88,28.1-29.87,1.02-7.04,2.11-14.08,3.33-22.21,1.49,9.77,2.67,18.49,4.18,27.16,2.69,15.41,6.35,20.27,25.48,24.68,6.12,1.41,12.4,2.08,19.77,3.28-8.01,1.31-14.91,2.18-21.7,3.61-13,2.75-21.2,10.39-23.32,23.92-1.41,9.01-2.98,18-4.6,27.76-1.1-7.44-2.06-14.25-3.14-21.05-.58-3.6-1.13-7.23-2.14-10.72-2.96-10.22-10.22-16.2-20.17-18.76-7.68-1.98-15.57-3.18-23.74-4.8Z"/>
  </g>
  <text class="cls-8" transform="translate(-2088.37 820.74)"><tspan x="0" y="0">astrodex</tspan></text>
  <rect class="cls-1" x="-3467.8" y="-8.92" width="1098.36" height="1098.36"/>
  <g>
    <path class="cls-6" d="M-3086.29,505.65c11.58,1.89,22.28,3.98,33.08,5.3,10.87,1.32,21.83,1.87,33.08,2.79-.95,2.65-2.16,5.64-3.1,8.71-2.29,7.56-1.37,14.54,4.56,20.17,5.99,5.69,13.46,6.53,20.36,3.08,14.37-7.17,28.35-15.13,42.34-23.03,11.9-6.71,24.29-11.22,38.2-10.73,10.14.36,19.65,3.01,28.51,7.75,14.61,7.82,28.94,16.15,43.65,23.77,4.26,2.2,9.42,3.84,14.13,3.75,12.83-.23,20.32-12.75,15.52-25.62-5.83-15.63-12.19-31.07-18.31-46.6-.3-.76-.53-1.54-.73-2.12,18.93-10.18,37.71-20.28,56.94-30.62,4.25,10.68,8.72,21.79,13.1,32.95,11.79,30.02,23.52,60.05,35.31,90.07,11.48,29.24-6.55,60.06-37.65,64.94-13.18,2.07-24.99-1.19-36.33-7.22-29.71-15.78-59.54-31.33-88.95-47.64-18.56-10.29-36.1-10.17-54.58.26-28.27,15.97-57.01,31.11-85.58,46.55-15.64,8.46-31.9,12.12-49.16,5.31-23.56-9.29-36.2-33.97-28.33-58.04,7.08-21.65,15.96-42.71,23.95-63.79Z"/>
    <path class="cls-6" d="M-3063.64,621.02c-4.97,0-9.75-.93-14.61-2.85-18.89-7.45-28.56-27.07-22.49-45.63,4.83-14.76,10.64-29.59,16.26-43.93,1.51-3.86,3.06-7.8,4.59-11.75.81.14,1.62.28,2.42.42,7.89,1.36,15.34,2.65,23.04,3.59,6.93.84,13.95,1.39,20.79,1.88-2.21,10.48.59,20.02,8.07,27.12,5.42,5.15,11.99,7.87,19,7.87,4.32,0,8.6-1.04,12.71-3.09,13.57-6.77,26.91-14.3,39.8-21.58l2.99-1.69c11.46-6.46,21.38-9.47,31.22-9.47.57,0,1.14.01,1.71.03,8.43.3,16.55,2.51,24.14,6.57,6.01,3.22,12.1,6.59,17.99,9.86,8.39,4.65,17.07,9.46,25.79,13.98,6.07,3.14,12.6,4.87,18.37,4.87h.53c9.02-.17,17.02-4.41,21.95-11.66,5.26-7.73,6.29-17.99,2.76-27.46-4.08-10.93-8.46-21.89-12.69-32.49-1.08-2.7-2.16-5.4-3.23-8.1l39.31-21.14c2.93,7.35,5.96,14.94,8.93,22.48,5.95,15.14,11.88,30.29,17.81,45.44,5.83,14.88,11.65,29.76,17.5,44.63,4.31,10.97,3.55,22.9-2.08,32.72-5.73,10-15.87,16.81-27.81,18.69-2.12.33-4.26.5-6.35.5-7.62,0-15.16-2.12-23.74-6.67-6.72-3.57-13.45-7.13-20.17-10.68-22.59-11.95-45.94-24.3-68.62-36.87-10.65-5.9-21.38-8.89-31.92-8.89s-21.46,3.01-32.42,9.19c-20.59,11.62-41.82,23.02-62.35,34.05-7.7,4.13-15.39,8.26-23.07,12.42-9.53,5.15-18.07,7.66-26.12,7.66Z"/>
    <path class="cls-6" d="M-2800.87,385.78c1.26,3.21,2.46,6.44,4.04,10.57-18.91,10.4-37.45,20.59-56.73,31.19-2.41-5.98-4.39-10.8-6.3-15.66-15.95-40.44-31.86-80.89-47.83-121.33-3.29-8.33-9.68-11.74-17.13-8.34-2.93,1.33-5.81,4.56-7.02,7.59-17.79,44.69-35.31,89.49-52.87,134.27-4.77,12.16-9.53,24.31-14.18,36.51-1.09,2.86-2.3,4.84-5.88,4.75-13.28-.35-26.6-.1-39.86-.83-8.03-.44-15.99-2.26-24.2-3.5,14.54-36.97,28.85-73.42,43.22-109.85,16.19-41.05,32.42-82.09,48.66-123.13,8.24-20.82,26.23-33.22,48.6-32.94,10.58.13,21.4.01,31.66,2.17,15.7,3.31,26.89,13.32,32.85,28.43"/>
    <path class="cls-6" d="M-3007.57,455.26c-4.08-.08-8.17-.12-12.15-.16-8.03-.07-16.33-.15-24.37-.59-3.55-.19-7.17-.71-10.93-1.33l8.71-22.16c10.03-25.53,20-50.88,29.99-76.21,13.95-35.36,28.95-73.33,48.65-123.12,6.7-16.92,20.76-26.63,38.58-26.63l3.77.04c9.4.09,18.29.18,26.56,1.93,12.16,2.56,20.78,10.07,25.61,22.32,15.84,40.11,31.87,80.92,47.37,120.39l15.59,39.7c.3.77.6,1.55.91,2.34l-39.24,21.57c-.7-1.74-1.38-3.44-2.05-5.14-5.77-14.63-11.54-29.27-17.3-43.9-10.17-25.81-20.34-51.62-30.53-77.43-3.95-10-11.76-15.97-20.9-15.97-3.22,0-6.48.74-9.68,2.2-5.19,2.36-9.96,7.46-12.16,12.99-15.13,37.99-30.3,76.68-44.97,114.1l-7.93,20.22c-4.21,10.74-8.96,22.85-13.54,34.85Z"/>
    <path class="cls-3" d="M-3027.18,323.42c-3.06,7.85-5.48,14.51-8.31,20.99-.63,1.43-2.59,2.47-4.16,3.27-17.96,9.14-35.26,19.34-50.57,32.55-10.76,9.28-20.74,19.31-26.72,32.53-8.68,19.19-3.92,35.08,13.92,46.35,14.9,9.42,31.59,13.74,48.8,15.92,54.41,6.9,106.92-2.75,158.42-19.42,37.4-12.1,73.38-27.44,105.63-50.41,12.95-9.23,24.65-19.82,33.72-33.02,4.88-7.1,7.96-14.97,8.6-23.59,1.16-15.71-7.16-26.09-19.81-33.67-13.86-8.3-29.36-11.53-45.13-12.72-6.45-.49-10.29-2.02-11.6-8.5-.42-2.06-1.43-4.01-2.32-6.42,13.81-.91,27.24.14,40.18,3.5,11.13,2.9,22.48,6.42,32.47,11.95,28,15.51,36.72,45.85,22.54,74.54-8.14,16.46-20.61,29.31-34.58,40.82-31.45,25.92-67.85,42.71-105.66,56.75-28.83,10.71-58.54,18.31-88.96,22.8-28.22,4.17-56.64,5.97-85.11,3.14-21.87-2.17-43.46-6.11-63.01-16.89-15.71-8.67-27.88-20.81-31.39-39.15-3.26-17.05,2.05-32.51,11.03-46.89,9.42-15.08,22.39-26.74,36.4-37.32,19.84-14.98,41.38-27.01,65.62-37.11Z"/>
    <path class="cls-3" d="M-3017.48,497.15c-9.52,0-18.89-.45-27.87-1.34-19.03-1.89-41.16-5.3-61.09-16.3-16.6-9.16-26.05-20.84-28.89-35.71-2.67-13.96.62-27.72,10.36-43.31,9.86-15.79,23.98-27.52,35.18-35.97,16.17-12.21,33.8-22.64,53.64-31.73-1.26,3.24-2.47,6.27-3.78,9.28-.46.37-1.55.93-1.99,1.15-22.04,11.22-37.94,21.46-51.57,33.22-10.15,8.76-21.42,19.68-28.01,34.26-9.67,21.39-4.06,40.08,15.8,52.64,13.78,8.71,29.93,14,50.84,16.65,12,1.52,24.35,2.29,36.72,2.29,37.79,0,78.31-7.17,123.88-21.91,44.09-14.27,78.09-30.5,107-51.1,15.02-10.7,26.45-21.91,34.94-34.26,5.61-8.16,8.79-16.93,9.46-26.05,1.17-15.9-6.31-28.79-22.23-38.33-12.83-7.69-27.87-11.95-47.33-13.42-5.77-.43-6.45-1.46-7.07-4.5-.05-.24-.1-.48-.16-.72.78-.01,1.56-.02,2.33-.02,10.27,0,20.21,1.23,29.54,3.66,9.85,2.56,21.27,5.93,31.3,11.49,25.39,14.06,33.62,41.37,20.48,67.95-6.78,13.71-17.04,25.8-33.28,39.18-33.69,27.77-73.4,44.48-104.22,55.92-28.35,10.53-57.94,18.11-87.95,22.54-20.31,3-38.64,4.46-56.01,4.46Z"/>
    <path class="cls-4" d="M-2774.85,243.28c6.18-1.03,12.08-1.94,17.95-3,19.21-3.45,25.22-9.88,28.1-29.87,1.02-7.04,2.11-14.08,3.33-22.21,1.49,9.77,2.67,18.49,4.18,27.16,2.69,15.41,6.35,20.27,25.48,24.68,6.12,1.41,12.4,2.08,19.77,3.28-8.01,1.31-14.91,2.18-21.7,3.61-13,2.75-21.2,10.39-23.32,23.92-1.41,9.01-2.98,18-4.6,27.76-1.1-7.44-2.06-14.25-3.14-21.05-.58-3.6-1.13-7.23-2.14-10.72-2.96-10.22-10.22-16.2-20.17-18.76-7.68-1.98-15.57-3.18-23.74-4.8Z"/>
  </g>
  <text class="cls-8" transform="translate(-3266.29 820.74)"><tspan x="0" y="0">astrodex</tspan></text>
</svg>